#!OML:ASF E:/inclinewalkrobotboard/Project1/Captureday1/Session1/subject1.ASF
:FULLY-SPECIFIED
:DEGREES
101
root 0 0 0 -1.410957320099179 21.455089067045865 8.587553969368797
lowerback -4.028084786232741 -6.062786470553435 -6.35958562966043
upperback -8.391923787255408 -7.507765279633148 6.982202414367359
thorax -6.088985842962749 -2.6192554959470735 10.969032460405607
lowerneck -5.598018218524492 -8.877012442915277 -7.67197175476527
upperneck 32.219420113321846 -11.46218273686978 1.875952403315017
head 12.136229123593184 -5.835192901321143 0.368441539209439
rclavicle -3.736389101520272E-15 -2.4345070600970787E-15
rhumerus -18.944834513690274 -26.939843306398995 -16.67148769352704
rradius 62.393665557017954
rwrist -12.251914775433022
rhand -26.617383117069696 32.380492406332785
rfingers 7.1250199999999655
rthumb -0.03312480678159346 1.6070764140341645
lclavicle 2.285044890490939E-16 -3.871335977147539E-15
lhumerus 22.138037134665566 3.3405725402066007 42.61579639705216
lradius 63.8437857981298
lwrist -6.8778022028200105
lhand -14.245517425773407 7.460780067358691
lfingers 7.125019999999965
lthumb 11.732296941759131 35.62797154822377
rfemur 138.9903647367778 -154.84126025254363 -120.32220630327723
rtibia 28.471182516148986
rfoot -13.89070173218838 -49.7233330709582
rtoes 4.584736878693747
lfemur -82.06890216947633 24.01908021736619 -57.0603953270445
ltibia 68.27218219386647
lfoot 12.503413275661313 31.970731254003574
ltoes 0.09534740536433084
102
root 0 0 0 -1.4076310297956418 21.44977400872084 8.585144616627476
lowerback -4.029744517252688 -6.062673933068977 -6.358584857837865
upperback -8.392514039967867 -7.507651271037936 6.982272949755009
thorax -6.088584147443028 -2.619361471413872 10.968566869549633
lowerneck -5.598153678667984 -8.876827905027437 -7.671844897700667
upperneck 32.22070560395198 -11.462294764014164 1.8766811461693929
head 12.136814733086446 -5.835137246158714 0.36868486582372095
rclavicle -3.736118017569312E-15 -2.4363315890174998E-15
rhumerus -18.935224238613962 -26.938793265240214 -16.672812549990326
rradius 62.39672621972506
rwrist -12.255927753659414
rhand -26.61792534101311 32.38022697653186
rfingers 7.1250199999999655
rthumb -0.03363881913208644 1.6067411724719989
lclavicle 2.230274278020809E-16 -3.8736114834850865E-15
lhumerus 22.167195048130598 3.32906667297838 42.57635889457554
lradius 63.84698502642169
lwrist -6.8835825061564195
lhand -14.21004004734308 7.464646896340689
lfingers 7.125019999999965
lthumb 11.76611483103027 35.625833220585875
rfemur 139.0783666592854 -154.92910265267216 -120.40702845191296
rtibia 28.475103648742184
rfoot -13.88414798445157 -49.74622624184879
rtoes 4.596340554929519
lfemur -82.07151456646403 24.02267955460981 -57.0444543379876
ltibia 68.28700376011507
lfoot 12.486118184675444 31.962297756853893
ltoes 0.09996307905367807
103
root 0 0 0 -1.4175725740072167 21.443341417824843 8.590259362884717
lowerback -4.021612467254718 -6.062321822583316 -6.360011798933203
upperback -8.389193131661749 -7.507305378901062 6.98103125133655
thorax -6.090147570546855 -2.6188395900314116 10.968048899351391
lowerneck -5.599143988340782 -8.874855880125487 -7.670178827958105
upperneck 32.214433875904604 -11.459246277507821 1.876974102110008
head 12.134372598845228 -5.833744981224492 0.3687469313722159
rclavicle -3.751104599401749E-15 -2.4402531549151584E-15
rhumerus -18.96626812498338 -26.939186321636832 -16.66716771878999
rradius 62.39352711932219
rwrist -12.246651403302941
rhand -26.61904815166605 32.3847470631517
rfingers 7.1250199999999655
rthumb -0.03472175470006533 1.6113043054146736
lclavicle 1.7839131933386237E-16 -3.89331931453129E-15
lhumerus 22.071369327641566 3.3048616932897135 42.75359261919663
lradius 63.84819795898531
lwrist -6.801537757665778
lhand -14.266604698979966 7.465895643149743
lfingers 7.125019999999965
lthumb 11.712068625301619 35.63339188014071
rfemur 138.84993435347354 -154.7015575155595 -120.17296789015447
rtibia 28.42550121253436
rfoot -13.92116535600589 -49.63239126177616
rtoes 4.531461579524461
lfemur -82.08874635394777 24.0111441321518 -57.076618643802064
ltibia 68.20646298936077
lfoot 12.560075880264716 31.99587178175489
ltoes 0.11451009950711466
104
root 0 0 0 -1.4121605603322465 21.448083837238816 8.587306344839176
lowerback -4.02618437353028 -6.062561001466223 -6.359309956288007
upperback -8.390808315443687 -7.507556045732011 6.981790825309616
thorax -6.088970582650869 -2.619174984494723 10.968472996220367
lowerneck -5.598653962718827 -8.876210426834463 -7.671202708262489
upperneck 32.21850802162706 -11.461272058166523 1.8765378931660992
head 12.135975191087782 -5.834689773544683 0.36861007000032253
rclavicle -3.73314087410092E-15 -2.4293905944522376E-15
rhumerus -18.942744787682024 -26.939577324646603 -16.674617856158
rradius 62.39798151880203
rwrist -12.257558763486415
rhand -26.617406901714833 32.382000236615404
rfingers 7.1250199999999655
rthumb -0.033180400503127316 1.608825796595326
lclavicle 2.4566161093746153E-16 -3.870038552136088E-15
lhumerus 22.035509185621798 3.278427615248409 42.75588963707508
lradius 63.860063139585556
lwrist -6.791495659594301
lhand -14.258376466809528 7.465726760628268
lfingers 7.125019999999965
lthumb 11.719680338756088 35.630445332781385
rfemur 138.97576990507167 -154.8423440897083 -120.30627098361583
rtibia 28.45367563498749
rfoot -13.93592000061749 -49.659611849110036
rtoes 4.5577107972181246
lfemur -82.07662259945296 24.0164746004983 -57.07256348350003
ltibia 68.24807185174866
lfoot 12.523042381744627 31.984355654375214
ltoes 0.09534156345976719
105
root 0 0 0 -1.4102813038962765 21.44749945551553 8.585830366748569
lowerback -4.027368774973468 -6.062587517368108 -6.358571425056188
upperback -8.391289359603423 -7.507582596385587 6.9820111426831755
thorax -6.08871760950904 -2.6192973630980907 10.968287950594622
lowerneck -5.598632204266251 -8.876347897501576 -7.671340376103118
upperneck 32.21950352316089 -11.461578017380662 1.8766534542542461
head 12.136400956496995 -5.834809761022064 0.36865509107160477
rclavicle -3.726324681340688E-15 -2.4276343658863298E-15
rhumerus -18.936610546670117 -26.93948031443861 -16.677272495789474
rradius 62.39944957032031
rwrist -12.260887404025176
rhand -26.61747764353623 32.381664988920924
rfingers 7.1250199999999655
rthumb -0.03325048066664138 1.608493387867238
lclavicle 2.6088114116934573E-16 -3.864789956945724E-15
lhumerus 22.03771569046064 3.2662562616723236 42.731595587047465
lradius 63.86569099696992
lwrist -6.793752017533576
lhand -14.235436629350735 7.4685514871411165
lfingers 7.125019999999965
lthumb 11.741505803619292 35.629210265209394
rfemur 139.0431678133537 -154.91141784808087 -120.37450456738352
rtibia 28.467682609291664
rfoot -13.92990608533955 -49.684152209388046
rtoes 4.571742958886418
lfemur -82.07910858262811 24.021650875109504 -57.0582249534621
ltibia 68.26989271845068
lfoot 12.513456109252356 31.973044553270086
ltoes 0.1019127028228688
106
root 0 0 0 -1.4069241736808493 21.44312699139478 8.583700461734628
lowerback -4.029236439056946 -6.062507480619626 -6.357762680545978
upperback -8.392029120919556 -7.507500823616754 6.982103693228682
thorax -6.088359757952241 -2.6193957088133155 10.967950035826767
lowerneck -5.598652183511346 -8.876252496323492 -7.671299596576982
upperneck 32.22081186011809 -11.461778270905736 1.877304165891796
head 12.136970085472711 -5.834806391150941 0.3688753655486483
rclavicle -3.727817497146048E-15 -2.430637296315504E-15
rhumerus -18.928201808768407 -26.938499616217108 -16.6775075215143
rradius 62.40158949523328
rwrist -12.263394221252128
rhand -26.61802337168198 32.38119418434489
rfingers 7.1250199999999655
rthumb -0.033761656516006155 1.6079068789811792
lclavicle 2.4916397243222814E-16 -3.86809544342833E-15
lhumerus 22.087003692615216 3.2684247028374482 42.6691161464812
lradius 63.864740344902124
lwrist -6.815583532362018
lhand -14.200546407976317 7.471046257560037
lfingers 7.125019999999965
lthumb 11.774840147163713 35.62670895055174
rfemur 139.12876838902048 -154.9940661962297 -120.45673159298065
rtibia 28.4723647218732
rfoot -13.916515716892214 -49.71509423591027
rtoes 4.585848589906096
lfemur -82.08046993162779 24.024973607550095 -57.042676130762565
ltibia 68.28521053865433
lfoot 12.493948071093076 31.96448861350899
ltoes 0.10572789271031446
